<?xml version="1.0" encoding="utf-8"?>
<!-- Generator: Adobe Illustrator 23.0.3, SVG Export Plug-In . SVG Version: 6.00 Build 0)  -->
<svg version="1.1" id="Calque_1" xmlns="http://www.w3.org/2000/svg" xmlns:xlink="http://www.w3.org/1999/xlink" x="0px" y="0px"
	 viewBox="0 0 100 100" style="enable-background:new 0 0 100 100;" xml:space="preserve">
<style type="text/css">
	.st0{fill:#FFFFFF;}
	.st1{opacity:0.6;fill:#FFFFFF;}
	.st2{opacity:0.3;fill:#FFFFFF;}
</style>
<g>
	<g>
		<g>
			<path class="st0" d="M14.09,90.82c-0.94,0.86-2.21,1.29-3.82,1.29c-2.14,0-3.94-0.8-5.4-2.41l2.08-2.97
				c0.51,0.51,1.03,0.9,1.55,1.17c0.52,0.26,0.97,0.4,1.33,0.4c0.33,0,0.59-0.1,0.77-0.3c0.18-0.2,0.28-0.49,0.28-0.87v-5.46H6.18
				v-3.62h9.31v9.18C15.49,88.77,15.02,89.97,14.09,90.82z"/>
			<path class="st0" d="M22.26,87.78c0.4,0.42,0.87,0.63,1.42,0.63c0.54,0,0.99-0.21,1.34-0.62c0.36-0.42,0.53-0.96,0.53-1.63v-8.11
				h4.59v8.11c0,1.21-0.27,2.28-0.8,3.19c-0.53,0.92-1.29,1.63-2.26,2.13c-0.98,0.5-2.12,0.75-3.42,0.75
				c-1.31,0-2.46-0.25-3.45-0.75c-1-0.5-1.77-1.21-2.31-2.13c-0.55-0.92-0.82-1.98-0.82-3.19v-8.11h4.59v8.11
				C21.66,86.82,21.86,87.36,22.26,87.78z"/>
			<path class="st0" d="M39.89,91.91l-1.66-3.6h-1.72v3.6h-4.59V78.05h6.7c1.89,0,3.34,0.43,4.37,1.3c1.03,0.86,1.54,2.09,1.54,3.67
				c0,1-0.19,1.88-0.56,2.62c-0.38,0.74-0.92,1.33-1.63,1.77l2.73,4.51H39.89z M36.51,84.83h2.12c0.5,0,0.89-0.15,1.16-0.44
				c0.27-0.3,0.41-0.71,0.41-1.24c0-0.51-0.14-0.91-0.41-1.2c-0.27-0.28-0.66-0.43-1.16-0.43h-2.12V84.83z"/>
			<path class="st0" d="M46.26,78.05h4.59v13.86h-4.59V78.05z"/>
			<path class="st0" d="M60.7,81.71c-0.92-0.33-1.67-0.49-2.25-0.49c-0.57,0-0.85,0.2-0.85,0.61c0,0.32,0.18,0.56,0.54,0.73
				c0.36,0.17,0.94,0.36,1.73,0.57c0.99,0.28,1.81,0.55,2.46,0.83c0.65,0.28,1.22,0.72,1.71,1.32c0.49,0.6,0.73,1.39,0.73,2.36
				c0,1-0.26,1.84-0.78,2.52c-0.52,0.68-1.22,1.18-2.11,1.51C61,92,60.02,92.17,58.94,92.17c-1.23,0-2.46-0.2-3.71-0.6
				s-2.32-0.95-3.23-1.65l1.7-3.46c0.7,0.61,1.58,1.12,2.63,1.55c1.05,0.43,1.94,0.64,2.65,0.64c0.34,0,0.61-0.06,0.81-0.19
				c0.2-0.13,0.3-0.32,0.3-0.58c0-0.32-0.19-0.56-0.56-0.74c-0.38-0.18-0.97-0.37-1.77-0.56c-0.98-0.25-1.79-0.51-2.44-0.78
				c-0.65-0.27-1.22-0.69-1.69-1.26c-0.47-0.57-0.71-1.33-0.71-2.27c0-0.92,0.24-1.73,0.73-2.42c0.49-0.69,1.18-1.22,2.08-1.59
				c0.9-0.37,1.94-0.55,3.12-0.55c1.08,0,2.16,0.15,3.23,0.45c1.07,0.3,2.01,0.71,2.8,1.21l-1.66,3.5
				C62.46,82.42,61.62,82.04,60.7,81.71z"/>
			<path class="st0" d="M76.52,85.15h1.68v5.08c-0.7,0.55-1.52,1-2.45,1.33c-0.94,0.33-1.87,0.49-2.79,0.49
				c-1.33,0-2.55-0.31-3.66-0.94c-1.11-0.63-1.98-1.48-2.62-2.57c-0.64-1.09-0.96-2.28-0.96-3.57c0-1.29,0.32-2.48,0.97-3.55
				c0.65-1.07,1.53-1.92,2.65-2.54c1.12-0.62,2.36-0.93,3.72-0.93c0.96,0,1.9,0.17,2.82,0.51c0.92,0.34,1.71,0.81,2.38,1.4
				l-1.09,1.38c-0.55-0.51-1.19-0.91-1.91-1.2c-0.72-0.28-1.45-0.43-2.21-0.43c-0.99,0-1.9,0.24-2.73,0.71
				c-0.83,0.47-1.49,1.12-1.97,1.94c-0.48,0.82-0.72,1.71-0.72,2.69c0,0.98,0.24,1.88,0.73,2.7c0.49,0.82,1.15,1.48,1.98,1.96
				c0.83,0.48,1.74,0.72,2.73,0.72c0.58,0,1.17-0.1,1.77-0.29c0.6-0.19,1.16-0.46,1.67-0.8V85.15z"/>
			<path class="st0" d="M91.52,78.88c1.11,0.62,1.99,1.47,2.64,2.54c0.65,1.07,0.97,2.26,0.97,3.55c0,1.29-0.32,2.48-0.97,3.57
				c-0.65,1.09-1.53,1.94-2.64,2.57c-1.11,0.63-2.34,0.94-3.67,0.94c-1.33,0-2.55-0.31-3.67-0.94c-1.11-0.63-1.99-1.48-2.64-2.57
				c-0.65-1.09-0.97-2.28-0.97-3.57c0-1.29,0.32-2.48,0.97-3.55c0.65-1.07,1.52-1.92,2.63-2.54c1.11-0.62,2.33-0.93,3.68-0.93
				C89.18,77.95,90.4,78.26,91.52,78.88z M85.19,80.36c-0.82,0.47-1.48,1.12-1.97,1.93c-0.49,0.81-0.73,1.7-0.73,2.68
				c0,0.98,0.24,1.87,0.73,2.69c0.49,0.82,1.14,1.47,1.97,1.95c0.82,0.48,1.72,0.72,2.68,0.72c0.96,0,1.85-0.24,2.66-0.72
				c0.81-0.48,1.46-1.13,1.94-1.95c0.48-0.82,0.72-1.71,0.72-2.69c0-0.98-0.24-1.87-0.72-2.68c-0.48-0.81-1.13-1.45-1.94-1.93
				c-0.81-0.47-1.7-0.71-2.66-0.71C86.91,79.65,86.01,79.89,85.19,80.36z"/>
		</g>
	</g>
	<path id="XMLID_41_" class="st0" d="M67.96,15.69c-5.28-5.28-12.2-7.92-19.12-7.92c-6.92,0-13.84,2.64-19.12,7.92
		c-1.23,1.23-2.32,2.56-3.27,3.95c3.76-5.49,10.08-9.09,17.24-9.09c11.54,0,20.89,9.35,20.89,20.89c0,3.71-0.97,7.19-2.66,10.2
		c-0.41,0.78-0.89,1.52-1.44,2.23c-1.04,1.41-2.26,2.68-3.62,3.78l-8.02,8.02l-8.69,8.69l8.69,8.69l19.12-19.12
		C78.53,43.38,78.53,26.25,67.96,15.69z"/>
	<path id="XMLID_36_" class="st1" d="M64.58,31.45c0-11.54-9.35-20.89-20.89-20.89c-7.16,0-13.47,3.6-17.24,9.09
		c-0.05,0.08-0.11,0.15-0.16,0.23c-0.16,0.23-0.31,0.47-0.46,0.71c-0.01,0.02-0.02,0.04-0.03,0.06
		c-6.42,10.42-5.12,24.26,3.92,33.29l6.04,6.04l8.69-8.69l-6.04-6.04c-5.75-5.75-5.75-15.11,0-20.86c2.79-2.79,6.49-4.32,10.43-4.32
		s7.64,1.53,10.43,4.32c4.67,4.67,5.55,11.71,2.64,17.27C63.61,38.63,64.58,35.16,64.58,31.45z"/>
	<path id="XMLID_34_" class="st2" d="M58.43,35.19c0,5.09-4.13,9.21-9.22,9.21s-9.22-4.12-9.22-9.21c0-1.49,0.35-2.89,0.98-4.14
		c1.51-3.02,4.64-5.08,8.24-5.08c3.6,0,6.72,2.06,8.23,5.07C58.08,32.29,58.43,33.69,58.43,35.19z"/>
	<g>
		<polygon class="st0" points="50.66,39.23 49.9,39.23 49.9,33.38 48.63,33.38 48.63,39.23 47.88,39.23 47.88,40.17 45.9,40.17 
			45.9,40.74 48.63,40.74 49.9,40.74 52.63,40.74 52.63,40.17 50.66,40.17 		"/>
		<path class="st0" d="M53.14,31.79h-7.86l-1.84,3.83c0.1,0.93,0.88,1.65,1.84,1.65c1.64,0,1.84-1.65,1.84-1.65l-1.46-3.03h7.09
			l-1.46,3.03c0.1,0.93,0.88,1.65,1.84,1.65c1.64,0,1.84-1.65,1.84-1.65L53.14,31.79z M45.28,36.8c-0.51,0-0.95-0.27-1.19-0.69h2.38
			C46.23,36.52,45.79,36.8,45.28,36.8z M43.98,35.63l1.3-2.72l1.32,2.72H43.98z M53.14,36.8c-0.51,0-0.95-0.27-1.19-0.69h2.38
			C54.09,36.52,53.65,36.8,53.14,36.8z M51.84,35.63l1.3-2.72l1.32,2.72H51.84z"/>
		<polygon class="st0" points="49.79,31.23 50.3,30.16 49.79,29.3 48.77,29.3 48.26,30.16 48.77,31.23 		"/>
	</g>
</g>
</svg>
