<?xml version="1.0" encoding="utf-8"?>
<!-- Generator: Adobe Illustrator 23.0.3, SVG Export Plug-In . SVG Version: 6.00 Build 0)  -->
<svg version="1.1" id="Calque_1" xmlns="http://www.w3.org/2000/svg" xmlns:xlink="http://www.w3.org/1999/xlink" x="0px" y="0px"
	 viewBox="0 0 566.93 283.46" style="enable-background:new 0 0 566.93 283.46;" xml:space="preserve">
<style type="text/css">
	.st0{fill:url(#XMLID_2_);}
	.st1{fill:url(#XMLID_3_);}
	.st2{fill:url(#XMLID_4_);}
	.st3{fill:#FFFFFF;}
	.st4{fill:#2E2E2E;}
</style>
<g>
	<g>
		<linearGradient id="XMLID_2_" gradientUnits="userSpaceOnUse" x1="30.5957" y1="143.3684" x2="153.2551" y2="143.3684">
			<stop  offset="0" style="stop-color:#F28B24"/>
			<stop  offset="0.7189" style="stop-color:#EC6725"/>
			<stop  offset="0.822" style="stop-color:#EC6527"/>
			<stop  offset="0.8995" style="stop-color:#EB5C2B"/>
			<stop  offset="0.9685" style="stop-color:#E94C30"/>
			<stop  offset="1" style="stop-color:#E84132"/>
		</linearGradient>
		<path id="XMLID_32_" class="st0" d="M133.6,80.8c-13.1-13.36-30.28-20.04-47.45-20.04c-17.17,0-34.35,6.68-47.45,20.04
			c-3.06,3.12-5.76,6.48-8.11,10c9.34-13.88,25.01-23,42.76-23c28.63,0,51.83,23.67,51.83,52.87c0,9.38-2.41,18.18-6.61,25.82
			c-1.01,1.96-2.2,3.85-3.57,5.64c-2.59,3.56-5.6,6.77-8.97,9.56l-19.89,20.29l-21.57,22l21.57,22l47.45-48.39
			C159.81,150.86,159.81,107.53,133.6,80.8z"/>
		<linearGradient id="XMLID_3_" gradientUnits="userSpaceOnUse" x1="19.0547" y1="130.3356" x2="125.1947" y2="130.3356">
			<stop  offset="0" style="stop-color:#C52252"/>
			<stop  offset="0.228" style="stop-color:#AF1F4A"/>
			<stop  offset="0.469" style="stop-color:#A01D43"/>
			<stop  offset="0.7211" style="stop-color:#971C40"/>
			<stop  offset="1" style="stop-color:#941B3E"/>
		</linearGradient>
		<path id="XMLID_30_" class="st1" d="M125.19,120.68c0-29.2-23.21-52.87-51.83-52.87c-17.76,0-33.42,9.11-42.76,23
			c-0.13,0.2-0.26,0.39-0.39,0.59c-0.39,0.59-0.77,1.19-1.13,1.8c-0.03,0.05-0.05,0.09-0.08,0.14
			c-15.94,26.38-12.7,61.39,9.72,84.26l14.98,15.27l21.57-22l-14.98-15.28C46,141.04,46,117.35,60.27,102.8
			c6.91-7.05,16.1-10.93,25.88-10.93s18.97,3.88,25.88,10.93c11.58,11.81,13.76,29.62,6.55,43.7
			C122.79,138.86,125.19,130.06,125.19,120.68z"/>
		<linearGradient id="XMLID_4_" gradientUnits="userSpaceOnUse" x1="64.1955" y1="130.1263" x2="109.9501" y2="130.1263">
			<stop  offset="0" style="stop-color:#C52252"/>
			<stop  offset="0.228" style="stop-color:#AF1F4A"/>
			<stop  offset="0.469" style="stop-color:#A01D43"/>
			<stop  offset="0.7211" style="stop-color:#971C40"/>
			<stop  offset="1" style="stop-color:#941B3E"/>
		</linearGradient>
		<path id="XMLID_12_" class="st2" d="M109.95,130.14c0,12.88-10.25,23.31-22.88,23.31S64.2,143.02,64.2,130.14
			c0-3.77,0.88-7.32,2.44-10.47c3.75-7.64,11.51-12.86,20.44-12.86c8.93,0,16.67,5.21,20.42,12.82
			C109.07,122.79,109.95,126.35,109.95,130.14z"/>
	</g>
	<g>
		<path class="st3" d="M81.72,129.39h0.03h0.03h0.03h0.03c1.44-0.03,2.57-0.51,3.42-1.47c1.88-2.12,1.58-5.75,1.54-6.1
			c-0.21-4.18-3.25-5.17-5.03-5.1c-1.82-0.07-4.86,0.96-5.03,5.1c-0.03,0.34-0.34,3.97,1.54,6.1
			C79.12,128.88,80.28,129.36,81.72,129.39z M78.02,121.93v-0.03c0.17-3.84,3.15-3.94,3.73-3.9h0.03c0.58-0.03,3.56,0.07,3.73,3.9
			v0.03c0,0.03,0.34,3.39-1.23,5.14c-0.62,0.68-1.44,1.03-2.53,1.06c0,0,0,0-0.03,0l0,0l0,0c0,0,0,0-0.03,0
			c-1.1,0-1.92-0.34-2.53-1.06C77.68,125.32,78.02,121.96,78.02,121.93z M91.86,135.46c0,0.31,0,1.54-0.24,2.19
			c-0.1,0.24-0.34,0.41-0.58,0.41c-0.07,0-0.17,0-0.24-0.03c-0.34-0.14-0.48-0.51-0.38-0.82c0.14-0.31,0.17-1.2,0.14-1.71
			c0-0.03,0-0.03,0-0.07c0.07-0.92,0-2.5-1.3-2.81c-2.43-0.62-4.42-1.99-4.49-2.05c-0.27-0.21-0.34-0.62-0.17-0.89
			c0.21-0.27,0.62-0.38,0.89-0.17c0.03,0,1.85,1.3,4.08,1.85C91.17,131.76,91.99,133.26,91.86,135.46z M79.01,129.67
			c0.21,0.27,0.14,0.68-0.17,0.89c-0.07,0.07-2.05,1.44-4.49,2.05c-1.27,0.31-1.37,1.92-1.3,2.81c0,0.03,0,0.03,0,0.07
			c0,0.51,0.03,1.4,0.17,1.71c0.14,0.34-0.03,0.72-0.38,0.82c-0.07,0.03-0.17,0.03-0.24,0.03c-0.24,0-0.51-0.14-0.58-0.41
			c-0.24-0.62-0.24-1.88-0.24-2.19c-0.14-2.23,0.68-3.73,2.26-4.11c2.23-0.55,4.04-1.85,4.08-1.85
			C78.4,129.29,78.81,129.36,79.01,129.67z M83.4,129.84c-0.34,0-0.65,0.27-0.65,0.65c0,0.27-0.1,0.51-0.31,0.68
			c-0.03,0.03-0.07,0.07-0.1,0.1c-0.14,0.1-0.31,0.17-0.51,0.17c-0.51,0-0.92-0.41-0.92-0.92c0-0.34-0.27-0.65-0.65-0.65
			s-0.65,0.27-0.65,0.65c0,0.51,0.17,0.99,0.48,1.37l-0.48,10.96c0,0.21,0.07,0.38,0.21,0.51l1.51,1.37
			c0.14,0.1,0.27,0.17,0.45,0.17c0.17,0,0.31-0.07,0.45-0.17l1.54-1.37c0.14-0.14,0.21-0.31,0.21-0.51l-0.48-10.82
			c0.38-0.38,0.58-0.92,0.58-1.47C84.05,130.11,83.74,129.84,83.4,129.84z M81.79,143.33l-0.86-0.75l0.45-9.93
			c0.14,0.03,0.31,0.03,0.48,0.03c0.14,0,0.24,0,0.38-0.03l0.45,9.9L81.79,143.33z"/>
		<path class="st3" d="M97.83,121.82c-0.21-4.18-3.25-5.17-5.03-5.1c-1.82-0.07-4.86,0.96-5.03,5.1c-0.03,0.34-0.34,3.97,1.54,6.1
			c0.82,0.96,1.99,1.44,3.42,1.47h0.14c1.44-0.03,2.57-0.51,3.42-1.47C98.17,125.8,97.86,122.17,97.83,121.82z M95.29,127.06
			c-0.62,0.68-1.44,1.03-2.53,1.06c0,0,0,0-0.03,0c0,0,0,0-0.03,0c-1.1,0-1.92-0.34-2.53-1.06c-1.47-1.75-1.13-5.1-1.13-5.14v-0.03
			c0.17-3.84,3.15-3.94,3.73-3.9h0.03c0.58-0.03,3.56,0.07,3.73,3.9v0.03C96.53,121.96,96.87,125.32,95.29,127.06z"/>
		<path class="st3" d="M102.86,135.46c0,0.31,0,1.54-0.24,2.19c-0.1,0.24-0.34,0.41-0.58,0.41c-0.07,0-0.17,0-0.24-0.03
			c-0.34-0.14-0.48-0.51-0.38-0.82c0.14-0.31,0.17-1.2,0.14-1.71c0-0.03,0-0.03,0-0.07c0.07-0.92,0-2.5-1.3-2.81
			c-2.43-0.62-4.42-1.99-4.49-2.05c-0.27-0.21-0.34-0.62-0.17-0.89c0.21-0.27,0.62-0.38,0.89-0.17c0.03,0,1.85,1.3,4.08,1.85
			C102.18,131.76,103,133.26,102.86,135.46z"/>
	</g>
	<g>
		<path class="st4" d="M214.53,166.67c-4.08,3.74-9.62,5.6-16.63,5.6c-9.31,0-17.15-3.5-23.53-10.51l9.05-12.93
			c2.24,2.24,4.49,3.94,6.77,5.08c2.27,1.15,4.21,1.72,5.82,1.72c1.44,0,2.56-0.43,3.36-1.29c0.8-0.86,1.21-2.12,1.21-3.79v-23.79
			h-20.51V111h40.59v39.99C220.65,157.71,218.61,162.94,214.53,166.67z"/>
		<path class="st4" d="M278.13,124.27v47.14h-19.39v-6.55c-1.55,2.41-3.51,4.25-5.86,5.52c-2.36,1.26-5.03,1.9-8.01,1.9
			c-3.22,0-6.06-0.75-8.53-2.24c-2.47-1.49-4.41-3.59-5.82-6.29c-1.41-2.7-2.11-5.83-2.11-9.39v-30.08h19.39v24.48
			c0,1.95,0.47,3.52,1.42,4.7c0.95,1.18,2.2,1.77,3.75,1.77c1.78,0,3.19-0.69,4.22-2.07c1.03-1.38,1.55-3.22,1.55-5.52v-23.35
			H278.13z"/>
		<path class="st4" d="M314.02,125.44c2.44-1.35,5.18-2.03,8.23-2.03v17.49c-1.26-0.17-2.5-0.26-3.71-0.26
			c-3.33,0-5.95,0.73-7.84,2.2s-2.84,3.49-2.84,6.08v22.49h-19.39v-47.14h19.39v6.89C309.53,128.7,311.58,126.79,314.02,125.44z"/>
		<path class="st4" d="M345.26,103.76c1.84,1.84,2.76,4.19,2.76,7.07c0,2.87-0.92,5.23-2.76,7.07c-1.84,1.84-4.19,2.76-7.07,2.76
			c-2.87,0-5.23-0.92-7.07-2.76c-1.84-1.84-2.76-4.19-2.76-7.07c0-2.87,0.92-5.23,2.76-7.07c1.84-1.84,4.19-2.76,7.07-2.76
			C341.07,101.01,343.42,101.92,345.26,103.76z M328.72,124.27h19.39v47.14h-19.39V124.27z"/>
		<path class="st4" d="M377.32,136.17c-0.81,0-1.45,0.14-1.94,0.43c-0.49,0.29-0.73,0.66-0.73,1.12c0,0.69,0.52,1.26,1.55,1.72
			c1.03,0.46,2.76,1.01,5.17,1.64c3.39,0.92,6.29,1.87,8.7,2.84c2.41,0.98,4.52,2.47,6.33,4.48c1.81,2.01,2.71,4.63,2.71,7.84
			c0,3.22-0.88,6.03-2.63,8.45c-1.75,2.41-4.24,4.28-7.45,5.6c-3.22,1.32-6.98,1.98-11.29,1.98c-8.79,0-16.46-2.24-23.01-6.72
			l5.86-12.07c6.32,3.91,12.12,5.86,17.41,5.86c0.92,0,1.64-0.13,2.15-0.39c0.52-0.26,0.78-0.59,0.78-0.99
			c0-0.63-0.5-1.16-1.51-1.59c-1.01-0.43-2.63-0.93-4.87-1.51c-3.39-0.86-6.26-1.78-8.62-2.76c-2.36-0.98-4.44-2.47-6.25-4.48
			c-1.81-2.01-2.71-4.65-2.71-7.93s0.86-6.13,2.59-8.57c1.72-2.44,4.15-4.34,7.28-5.69c3.13-1.35,6.77-2.03,10.9-2.03
			c7.53,0,14.82,1.98,21.89,5.95l-6.38,11.98C386.25,137.89,380.94,136.17,377.32,136.17z"/>
		<path class="st4" d="M410.5,101.6h13.27l-4.05,21.2h-10.69L410.5,101.6z"/>
		<path class="st4" d="M476.32,141.94h7.33v22.15c-3.05,2.41-6.61,4.34-10.69,5.77c-4.08,1.44-8.13,2.15-12.15,2.15
			c-5.8,0-11.12-1.36-15.94-4.09c-4.83-2.73-8.63-6.46-11.42-11.2c-2.79-4.74-4.18-9.92-4.18-15.56c0-5.63,1.41-10.79,4.22-15.47
			c2.81-4.68,6.66-8.37,11.55-11.07c4.88-2.7,10.28-4.05,16.2-4.05c4.19,0,8.29,0.75,12.28,2.24c3.99,1.49,7.45,3.53,10.38,6.12
			l-4.74,6.03c-2.41-2.24-5.19-3.98-8.32-5.21c-3.13-1.23-6.33-1.85-9.61-1.85c-4.31,0-8.27,1.03-11.89,3.1
			c-3.62,2.07-6.48,4.88-8.57,8.45c-2.1,3.56-3.15,7.47-3.15,11.72c0,4.25,1.06,8.17,3.19,11.76c2.12,3.59,5,6.44,8.62,8.53
			c3.62,2.1,7.58,3.15,11.89,3.15c2.53,0,5.1-0.42,7.71-1.25c2.61-0.83,5.04-2,7.28-3.49V141.94z"/>
		<path class="st4" d="M529.8,128.5c3.53,1.95,6.29,4.67,8.27,8.14c1.98,3.48,2.97,7.45,2.97,11.94c0,4.48-0.99,8.48-2.97,11.98
			c-1.98,3.51-4.74,6.23-8.27,8.19c-3.53,1.95-7.57,2.93-12.11,2.93c-4.6,0-8.66-0.98-12.19-2.93c-3.53-1.95-6.29-4.67-8.27-8.14
			c-1.98-3.48-2.97-7.48-2.97-12.02c0-4.48,0.99-8.46,2.97-11.94c1.98-3.48,4.74-6.19,8.27-8.14c3.53-1.95,7.6-2.93,12.19-2.93
			C522.23,125.57,526.26,126.54,529.8,128.5z M509.72,134.62c-2.33,1.38-4.14,3.29-5.43,5.73c-1.29,2.44-1.94,5.21-1.94,8.32
			c0,3.16,0.65,5.98,1.94,8.45c1.29,2.47,3.1,4.38,5.43,5.73c2.33,1.35,4.98,2.03,7.97,2.03c2.93,0,5.56-0.67,7.89-2.03
			c2.33-1.35,4.14-3.26,5.43-5.73c1.29-2.47,1.94-5.29,1.94-8.45c0-3.1-0.65-5.87-1.94-8.32c-1.29-2.44-3.1-4.35-5.43-5.73
			c-2.33-1.38-4.96-2.07-7.89-2.07C514.7,132.55,512.04,133.24,509.72,134.62z"/>
	</g>
</g>
</svg>
